<svg width="10" height="16" viewBox="0 0 10 16" fill="none" xmlns="http://www.w3.org/2000/svg">
<path d="M9.73127 1.34901C9.81711 1.27268 9.88422 1.18288 9.92876 1.08476C9.97331 0.986633 9.99442 0.882096 9.99088 0.777116C9.98735 0.672136 9.95924 0.568769 9.90816 0.472916C9.85709 0.377064 9.78405 0.290603 9.69321 0.218471C9.60237 0.146339 9.49551 0.0899478 9.37873 0.0525173C9.26196 0.0150869 9.13755 -0.00264992 9.01262 0.000319814C8.88768 0.00328955 8.76467 0.0269075 8.6506 0.0698253C8.53653 0.112743 8.43363 0.17412 8.34779 0.250452L0.260084 7.44623C0.0930622 7.59468 0 7.79122 0 7.99551C0 8.1998 0.0930622 8.39634 0.260084 8.54478L8.34779 15.7414C8.43307 15.8194 8.53594 15.8824 8.65043 15.9267C8.76492 15.971 8.88875 15.9957 9.01472 15.9995C9.14069 16.0033 9.2663 15.9859 9.38424 15.9486C9.50219 15.9112 9.61012 15.8545 9.70177 15.7818C9.79342 15.7091 9.86696 15.6218 9.91811 15.525C9.96927 15.4282 9.99703 15.3238 9.99977 15.2179C10.0025 15.112 9.9802 15.0067 9.9341 14.9081C9.88801 14.8095 9.81906 14.7196 9.73127 14.6436L2.26013 7.99551L9.73127 1.34901Z" fill="currentColor"/>
</svg>
