<svg width="302" height="66" viewBox="0 0 302 66" fill="none" xmlns="http://www.w3.org/2000/svg">
<path d="M292.128 20.0555C292.128 9.20163 283.329 0.402832 272.475 0.402832V0.402832V28.8474H292.128V20.0555Z" fill="#F8F2EC" stroke="#F8F2EC" stroke-width="0.805851"/>
<rect width="19.6526" height="8.1217" transform="matrix(-1 0 0 1 292.128 28.8477)" fill="#F8F2EC" stroke="#F8F2EC" stroke-width="0.805851"/>
<path d="M272.475 36.9692V65.4136C277.235 65.4136 281.599 63.7211 285 60.9058C288.392 63.1658 293.831 65.3156 300.403 64.1206C298.593 63.3447 291.611 58.6903 291.87 49.3813C291.839 49.4236 291.804 49.463 291.771 49.5034C292.005 48.2919 292.129 47.041 292.129 45.7612V36.9692H272.475Z" fill="#F8F2EC"/>
<path d="M272.475 36.9692H272.072V36.5663H272.475V36.9692ZM272.475 65.4136V65.8165H272.072V65.4136H272.475ZM285 60.9058L284.743 60.5954L284.974 60.4042L285.223 60.5704L285 60.9058ZM300.403 64.1206L300.562 63.7503L301.792 64.2776L300.475 64.517L300.403 64.1206ZM291.87 49.3813L291.544 49.1444L292.309 48.0928L292.273 49.3925L291.87 49.3813ZM291.771 49.5034L292.082 49.7597L291.375 49.4271L291.771 49.5034ZM292.129 45.7612H292.531V45.7612H292.129ZM292.129 36.9692V36.5663H292.531V36.9692H292.129ZM272.475 36.9692H272.878V65.4136H272.475H272.072V36.9692H272.475ZM272.475 65.4136V65.0106C277.138 65.0106 281.412 63.3532 284.743 60.5954L285 60.9058L285.257 61.2161C281.786 64.0891 277.332 65.8165 272.475 65.8165V65.4136ZM285 60.9058L285.223 60.5704C288.553 62.789 293.887 64.8958 300.331 63.7242L300.403 64.1206L300.475 64.517C293.774 65.7353 288.231 63.5427 284.776 61.2411L285 60.9058ZM300.403 64.1206L300.244 64.4909C299.277 64.0766 297.026 62.6779 295.046 60.2026C293.058 57.7174 291.335 54.1359 291.467 49.3702L291.87 49.3813L292.273 49.3925C292.146 53.9358 293.785 57.336 295.675 59.6992C297.574 62.0723 299.718 63.3888 300.562 63.7503L300.403 64.1206ZM291.87 49.3813L292.196 49.6183C292.155 49.6737 292.105 49.7323 292.082 49.7597L291.771 49.5034L291.46 49.2472C291.504 49.1938 291.523 49.1735 291.544 49.1444L291.87 49.3813ZM291.771 49.5034L291.375 49.4271C291.604 48.2403 291.726 47.0149 291.726 45.7612H292.129H292.531C292.531 47.067 292.405 48.3435 292.167 49.5797L291.771 49.5034ZM292.129 45.7612H291.726V36.9692H292.129H292.531V45.7612H292.129ZM292.129 36.9692V37.3722H272.475V36.9692V36.5663H292.129V36.9692Z" fill="#F8F2EC"/>
<rect width="252.42" height="65.0106" transform="matrix(-1 0 0 1 272.475 0.402832)" fill="#F8F2EC"/>
<rect width="252.42" height="65.0106" transform="matrix(-1 0 0 1 272.475 0.402832)" stroke="#F8F2EC" stroke-width="0.805851"/>
<path d="M0.402954 20.0555C0.402954 9.20163 9.20174 0.402832 20.0556 0.402832V0.402832V28.8474H0.402954V20.0555Z" fill="#F8F2EC" stroke="#F8F2EC" stroke-width="0.805851"/>
<rect x="0.402954" y="28.8477" width="19.6526" height="8.12144" fill="#F8F2EC" stroke="#F8F2EC" stroke-width="0.805851"/>
<path d="M0.402954 45.7609C0.402954 56.6148 9.20174 65.4136 20.0556 65.4136V65.4136V36.969H0.402954V45.7609Z" fill="#F8F2EC" stroke="#F8F2EC" stroke-width="0.805851"/>
</svg>
