<svg width="51" height="39" viewBox="0 0 51 39" fill="none" xmlns="http://www.w3.org/2000/svg">
<path d="M14.5625 1C15.2587 1 15.9267 1.27627 16.4189 1.76855C16.9112 2.26084 17.1875 2.92881 17.1875 3.625C17.1875 4.32119 16.9112 4.98916 16.4189 5.48145C15.9267 5.97373 15.2587 6.25 14.5625 6.25C9.97151 6.25 6.25 9.97151 6.25 14.5625V17.1094L6.88574 16.9297C7.51415 16.7522 8.16154 16.6518 8.81348 16.6299L9.09375 16.625H13.7812C18.2512 16.625 21.875 20.2488 21.875 24.7188V29.4062C21.875 33.8762 18.2512 37.5 13.7812 37.5H9.09375C4.6238 37.5 1 33.8762 1 29.4062V14.5625C1 7.07224 7.07224 1 14.5625 1ZM42.6875 1C43.3837 1 44.0517 1.27627 44.5439 1.76855C45.0362 2.26084 45.3125 2.92881 45.3125 3.625C45.3125 4.32119 45.0362 4.98916 44.5439 5.48145C44.0517 5.97373 43.3837 6.25 42.6875 6.25C38.0965 6.25 34.375 9.97151 34.375 14.5625V17.1094L35.0107 16.9297C35.6391 16.7522 36.2865 16.6518 36.9385 16.6299L37.2188 16.625H41.9062C46.3762 16.625 50 20.2488 50 24.7188V29.4062C50 33.8762 46.3762 37.5 41.9062 37.5H37.2188C32.7488 37.5 29.125 33.8762 29.125 29.4062V14.5625C29.125 7.07224 35.1972 1 42.6875 1Z" fill="#DBC9B8" stroke="#43372C"/>
<path d="M6.75 14.5625C6.75 10.2477 10.2477 6.75 14.5625 6.75C15.3913 6.75 16.1862 6.42076 16.7722 5.83471C17.3583 5.24866 17.6875 4.4538 17.6875 3.625C17.6875 2.7962 17.3583 2.00134 16.7722 1.41529C16.1862 0.829241 15.3913 0.5 14.5625 0.5C6.79609 0.5 0.5 6.79609 0.5 14.5625V29.4062C0.5 34.1523 4.34766 38 9.09375 38H13.7812C18.5273 38 22.375 34.1523 22.375 29.4062V24.7188C22.375 19.9727 18.5273 16.125 13.7812 16.125H9.09375C8.30132 16.1242 7.5126 16.2331 6.75 16.4484V14.5625ZM34.875 14.5625C34.875 10.2477 38.3727 6.75 42.6875 6.75C43.5163 6.75 44.3112 6.42076 44.8972 5.83471C45.4833 5.24866 45.8125 4.4538 45.8125 3.625C45.8125 2.7962 45.4833 2.00134 44.8972 1.41529C44.3112 0.829241 43.5163 0.5 42.6875 0.5C34.9211 0.5 28.625 6.79609 28.625 14.5625V29.4062C28.625 34.1523 32.4727 38 37.2188 38H41.9062C46.6523 38 50.5 34.1523 50.5 29.4062V24.7188C50.5 19.9727 46.6523 16.125 41.9062 16.125H37.2188C36.4263 16.1242 35.6376 16.2331 34.875 16.4484V14.5625Z" fill="#DBC9B8" stroke="#43372C" stroke-linecap="round" stroke-linejoin="round"/>
</svg>
