<svg width="38" height="36" viewBox="0 0 38 36" fill="none" xmlns="http://www.w3.org/2000/svg">
<path d="M12.5151 10.8684L1.48115 12.4546L1.28572 12.4941C0.989873 12.5719 0.720173 12.7263 0.504158 12.9413C0.288143 13.1563 0.133552 13.4243 0.0561738 13.718C-0.0212049 14.0116 -0.0185995 14.3204 0.0637237 14.6127C0.146047 14.905 0.305138 15.1704 0.524752 15.3818L8.51835 23.0968L6.63323 33.9944L6.61075 34.183C6.59264 34.4864 6.65617 34.7891 6.79485 35.0602C6.93352 35.3312 7.14236 35.5608 7.39996 35.7255C7.65757 35.8902 7.95469 35.9841 8.26091 35.9975C8.56713 36.0109 8.87144 35.9434 9.14269 35.8018L19.011 30.6574L28.8569 35.8018L29.0298 35.8807C29.3153 35.9922 29.6255 36.0264 29.9287 35.9797C30.2319 35.9331 30.5171 35.8073 30.7551 35.6153C30.9931 35.4234 31.1753 35.172 31.283 34.8872C31.3907 34.6023 31.4201 34.2942 31.3681 33.9944L29.4812 23.0968L37.4783 15.3801L37.6132 15.2343C37.8059 14.999 37.9322 14.7172 37.9793 14.4177C38.0265 14.1182 37.9927 13.8117 37.8814 13.5294C37.7701 13.247 37.5854 12.999 37.3459 12.8105C37.1065 12.622 36.821 12.4998 36.5184 12.4563L25.4844 10.8684L20.552 0.956813C20.4093 0.669641 20.1883 0.427819 19.9141 0.25872C19.64 0.0896219 19.3235 0 19.0006 0C18.6778 0 18.3613 0.0896219 18.0872 0.25872C17.813 0.427819 17.592 0.669641 17.4493 0.956813L12.5151 10.8684Z" fill="currentColor"/>
</svg>
