<svg width="50" height="52" viewBox="0 0 50 52" fill="none" xmlns="http://www.w3.org/2000/svg">
<path fill-rule="evenodd" clip-rule="evenodd" d="M18.0703 0.0364885C18.5986 0.102322 19.1087 0.271569 19.5716 0.534568C20.0345 0.797567 20.4411 1.14917 20.7681 1.56929C21.0951 1.98941 21.3362 2.46983 21.4775 2.98312C21.6189 3.49641 21.6577 4.03251 21.5919 4.56081L20.6405 12.1662H31.3865L32.4649 3.55541C32.5982 2.48845 33.1499 1.51815 33.9986 0.857974C34.8474 0.197795 35.9236 -0.0981885 36.9905 0.0351366C38.0575 0.168462 39.0278 0.720174 39.688 1.5689C40.3482 2.41763 40.6441 3.49385 40.5108 4.56081L39.5595 12.1662H45.9459C47.0211 12.1662 48.0523 12.5933 48.8126 13.3536C49.5729 14.1139 50 15.1451 50 16.2203C50 17.2955 49.5729 18.3266 48.8126 19.0869C48.0523 19.8472 47.0211 20.2743 45.9459 20.2743H38.5459L37.1946 31.0851H44.5946C45.6698 31.0851 46.701 31.5123 47.4612 32.2725C48.2215 33.0328 48.6487 34.064 48.6487 35.1392C48.6487 36.2144 48.2215 37.2456 47.4612 38.0058C46.701 38.7661 45.6698 39.1932 44.5946 39.1932H36.1811L35.1054 47.8041C34.9721 48.871 34.4204 49.8413 33.5716 50.5015C32.7229 51.1617 31.6467 51.4577 30.5797 51.3243C29.5128 51.191 28.5425 50.6393 27.8823 49.7906C27.2221 48.9418 26.9261 47.8656 27.0595 46.7986L28.0081 39.1932H17.2649L16.1892 47.8041C16.0559 48.871 15.5042 49.8413 14.6554 50.5015C13.8067 51.1617 12.7305 51.4577 11.6635 51.3243C10.5966 51.191 9.62626 50.6393 8.96608 49.7906C8.3059 48.9418 8.00992 47.8656 8.14324 46.7986L9.08919 39.1932H4.05405C2.97885 39.1932 1.94769 38.7661 1.18741 38.0058C0.427122 37.2456 0 36.2144 0 35.1392C0 34.064 0.427122 33.0328 1.18741 32.2725C1.94769 31.5123 2.97885 31.0851 4.05405 31.0851H10.1027L11.4541 20.2743H5.40541C4.3302 20.2743 3.29904 19.8472 2.53876 19.0869C1.77847 18.3266 1.35135 17.2955 1.35135 16.2203C1.35135 15.1451 1.77847 14.1139 2.53876 13.3536C3.29904 12.5933 4.3302 12.1662 5.40541 12.1662H12.4676L13.5459 3.55541C13.6115 3.02686 13.7805 2.5164 14.0433 2.0532C14.3062 1.58999 14.6577 1.18312 15.0779 0.855831C15.498 0.528539 15.9786 0.287243 16.492 0.145729C17.0055 0.0042157 17.5418 -0.0347418 18.0703 0.0310828V0.0364885ZM29.027 31.0851L30.3784 20.2743H19.6297L18.2784 31.0851H29.027Z" fill="currentColor"/>
</svg>
