<svg width="50" height="47" viewBox="0 0 50 47" fill="none" xmlns="http://www.w3.org/2000/svg">
<path d="M23.7398 4.0916C24.0743 3.75749 24.5278 3.56983 25.0006 3.56983C25.4734 3.56983 25.9268 3.75749 26.2614 4.0916L46.9332 24.7634C47.0979 24.9338 47.2948 25.0696 47.5125 25.163C47.7302 25.2564 47.9643 25.3055 48.2012 25.3074C48.4381 25.3094 48.673 25.2641 48.8923 25.1743C49.1115 25.0845 49.3106 24.9519 49.478 24.7843C49.6455 24.6168 49.7779 24.4175 49.8675 24.1982C49.9571 23.9789 50.0021 23.7439 49.9999 23.5071C49.9978 23.2702 49.9484 23.0361 49.8548 22.8185C49.7612 22.6008 49.6252 22.404 49.4547 22.2395L28.7853 1.56768C28.2883 1.07067 27.6982 0.676411 27.0488 0.407427C26.3995 0.138444 25.7035 0 25.0006 0C24.2977 0 23.6017 0.138444 22.9523 0.407427C22.3029 0.676411 21.7129 1.07067 21.2159 1.56768L0.544053 22.2395C0.373733 22.4042 0.23791 22.6011 0.144511 22.8188C0.0511116 23.0365 0.00200628 23.2707 6.02038e-05 23.5076C-0.00188587 23.7445 0.0433661 23.9794 0.133176 24.1986C0.222986 24.4178 0.355555 24.6169 0.523148 24.7844C0.690741 24.9518 0.890001 25.0842 1.1093 25.1738C1.3286 25.2634 1.56355 25.3084 1.80044 25.3063C2.03733 25.3041 2.27142 25.2548 2.48904 25.1612C2.70667 25.0675 2.90347 24.9315 3.06797 24.7611L23.7398 4.0916Z" fill="currentColor"/>
<path d="M25.0003 7.87646L44.409 27.2852C44.4804 27.3549 44.5525 27.4231 44.6255 27.4897V42.2336C44.6255 44.6957 42.6273 46.6939 40.1652 46.6939H32.1367C31.6635 46.6939 31.2097 46.5059 30.8752 46.1713C30.5406 45.8367 30.3526 45.3829 30.3526 44.9098V34.2051C30.3526 33.7319 30.1646 33.2781 29.8301 32.9436C29.4955 32.609 29.0417 32.421 28.5685 32.421H21.4321C20.9589 32.421 20.5051 32.609 20.1705 32.9436C19.8359 33.2781 19.648 33.7319 19.648 34.2051V44.9098C19.648 45.3829 19.46 45.8367 19.1254 46.1713C18.7908 46.5059 18.337 46.6939 17.8639 46.6939H9.83539C8.65245 46.6939 7.51797 46.2239 6.6815 45.3875C5.84504 44.551 5.37512 43.4165 5.37512 42.2336V27.4897L5.59159 27.2852L25.0003 7.87646Z" fill="currentColor"/>
</svg>
