<svg width="50" height="41" viewBox="0 0 50 41" fill="none" xmlns="http://www.w3.org/2000/svg">
<path d="M48.75 3.34726C49.0867 3.54147 49.3734 3.81146 49.5874 4.13576C49.8013 4.46007 49.9366 4.82975 49.9825 5.21545L50 5.51016V37.9786C50 38.417 49.8845 38.8477 49.665 39.2274C49.4456 39.607 49.13 39.9223 48.75 40.1415C48.3699 40.3607 47.9388 40.4761 47.5 40.4761C47.0611 40.4761 46.63 40.3607 46.25 40.1415C43.4173 38.5074 40.2267 37.5924 36.9578 37.4766C33.6889 37.3607 30.4414 38.0477 27.5 39.4772V1.57898C30.9534 0.290257 34.6494 -0.219512 38.3232 0.0861947C41.9969 0.391901 45.5576 1.50551 48.75 3.34726ZM22.5 1.58148L22.5025 39.4797C19.677 38.1055 16.5671 37.4159 13.425 37.4666C10.2829 37.5174 7.19704 38.3072 4.4175 39.7719L3.6 40.2214L3.3425 40.3313L3.22 40.3713L2.945 40.4362L2.7925 40.4612L2.5 40.4762H2.395L2.12 40.4462L1.9275 40.4113L1.6575 40.3313L1.3425 40.1915L1.105 40.0516L0.8825 39.8843L0.7325 39.7444L0.55 39.5396L0.39 39.3173L0.335 39.2274L0.255 39.0775L0.145 38.8203L0.105 38.6979L0.0400001 38.4232L0.0150001 38.2708L0.00500023 38.1485L0 5.51016C1.1148e-05 5.07176 0.115532 4.64108 0.334952 4.26141C0.554373 3.88175 0.869961 3.56647 1.25 3.34726C4.44262 1.50592 8.00334 0.392743 11.6771 0.087469C15.3509 -0.217805 19.0468 0.292381 22.5 1.58148Z" fill="currentColor"/>
</svg>
