<svg width="50" height="50" viewBox="0 0 50 50" fill="none" xmlns="http://www.w3.org/2000/svg">
<circle cx="25" cy="25" r="25" fill="white"/>
<path fill-rule="evenodd" clip-rule="evenodd" d="M24.9999 2.74683e-10C28.283 -1.5389e-05 31.5339 0.646616 34.567 1.90297C37.6002 3.15933 40.3562 5.00081 42.6776 7.32227C44.9991 9.64373 46.8406 12.3997 48.097 15.4329C49.3534 18.466 50 21.7169 50 24.9999C50 38.8071 38.8071 50 24.9999 50C11.1929 50 0 38.8071 0 24.9999C0 11.1929 11.1929 2.74683e-10 24.9999 2.74683e-10ZM27.5 27.5H22.5C16.3107 27.5 10.9971 31.2485 8.70527 36.5994C12.3315 41.6843 18.2785 45 24.9999 45C31.7213 45 37.6684 41.6843 41.2947 36.599C39.0029 31.2485 33.6893 27.5 27.5 27.5ZM24.9999 7.49999C20.8578 7.49999 17.4999 10.8579 17.4999 15C17.4999 19.1421 20.8578 22.5 24.9999 22.5C29.142 22.5 32.4999 19.1421 32.4999 15C32.4999 10.8579 29.1422 7.49999 24.9999 7.49999Z" fill="#584635"/>
<path fill-rule="evenodd" clip-rule="evenodd" d="M24.9999 2.74683e-10C28.283 -1.5389e-05 31.5339 0.646616 34.567 1.90297C37.6002 3.15933 40.3562 5.00081 42.6776 7.32227C44.9991 9.64373 46.8406 12.3997 48.097 15.4329C49.3534 18.466 50 21.7169 50 24.9999C50 38.8071 38.8071 50 24.9999 50C11.1929 50 0 38.8071 0 24.9999C0 11.1929 11.1929 2.74683e-10 24.9999 2.74683e-10ZM27.5 27.5H22.5C16.3107 27.5 10.9971 31.2485 8.70527 36.5994C12.3315 41.6843 18.2785 45 24.9999 45C31.7213 45 37.6684 41.6843 41.2947 36.599C39.0029 31.2485 33.6893 27.5 27.5 27.5ZM24.9999 7.49999C20.8578 7.49999 17.4999 10.8579 17.4999 15C17.4999 19.1421 20.8578 22.5 24.9999 22.5C29.142 22.5 32.4999 19.1421 32.4999 15C32.4999 10.8579 29.1422 7.49999 24.9999 7.49999Z" fill="#584635"/>
<path fill-rule="evenodd" clip-rule="evenodd" d="M24.9999 2.74683e-10C28.283 -1.5389e-05 31.5339 0.646616 34.567 1.90297C37.6002 3.15933 40.3562 5.00081 42.6776 7.32227C44.9991 9.64373 46.8406 12.3997 48.097 15.4329C49.3534 18.466 50 21.7169 50 24.9999C50 38.8071 38.8071 50 24.9999 50C11.1929 50 0 38.8071 0 24.9999C0 11.1929 11.1929 2.74683e-10 24.9999 2.74683e-10ZM27.5 27.5H22.5C16.3107 27.5 10.9971 31.2485 8.70527 36.5994C12.3315 41.6843 18.2785 45 24.9999 45C31.7213 45 37.6684 41.6843 41.2947 36.599C39.0029 31.2485 33.6893 27.5 27.5 27.5ZM24.9999 7.49999C20.8578 7.49999 17.4999 10.8579 17.4999 15C17.4999 19.1421 20.8578 22.5 24.9999 22.5C29.142 22.5 32.4999 19.1421 32.4999 15C32.4999 10.8579 29.1422 7.49999 24.9999 7.49999Z" fill="currentColor"/>
</svg>
