<svg width="54" height="54" viewBox="0 0 54 54" fill="none" xmlns="http://www.w3.org/2000/svg">
<mask id="path-1-outside-1_50_1110" maskUnits="userSpaceOnUse" x="0" y="2.09814" width="52" height="52" fill="black">
<rect fill="white" y="2.09814" width="52" height="52"/>
<path d="M23.9552 8.09814C15.8659 8.11284 11.6281 8.31234 8.92113 11.0171C6 13.9425 6 18.6444 6 28.0482C6 37.452 6 42.1539 8.92113 45.0771C11.8444 47.9982 16.5442 47.9982 25.9523 47.9982C35.3562 47.9982 40.0581 47.9982 42.9793 45.0771C45.6883 42.3681 45.8857 38.1324 45.9004 30.0411"/>
</mask>
<path d="M23.9661 14.0981C27.2798 14.0921 29.9612 11.4009 29.9552 8.08724C29.9492 4.77354 27.258 2.09213 23.9443 2.09815L23.9552 8.09814L23.9661 14.0981ZM8.92113 11.0171L4.68015 6.77284L4.67546 6.77754L8.92113 11.0171ZM8.92113 45.0771L4.67698 49.3182L4.68003 49.3213L8.92113 45.0771ZM51.9004 30.052C51.9064 26.7383 49.225 24.0471 45.9113 24.0411C42.5976 24.0351 39.9064 26.7165 39.9004 30.0302L45.9004 30.0411L51.9004 30.052ZM23.9552 8.09814L23.9443 2.09815C19.9982 2.10533 16.4253 2.14629 13.4613 2.6259C10.323 3.13374 7.23303 4.22197 4.68015 6.77284L8.92113 11.0171L13.1621 15.2615C13.3162 15.1075 13.6986 14.7436 15.3782 14.4718C17.2323 14.1718 19.8229 14.1057 23.9661 14.0981L23.9552 8.09814ZM8.92113 11.0171L4.67546 6.77754C1.91699 9.53995 0.873203 12.9219 0.418616 16.3039C-0.0127344 19.5132 0 23.5158 0 28.0482H6H12C12 23.1767 12.0127 20.1265 12.3117 17.9025C12.5874 15.8513 13.0041 15.4197 13.1668 15.2568L8.92113 11.0171ZM6 28.0482H0C0 32.5805 -0.0127373 36.5832 0.418626 39.7922C0.873205 43.1739 1.91711 46.5564 4.67698 49.3182L8.92113 45.0771L13.1653 40.836C13.004 40.6746 12.5874 40.2445 12.3117 38.1935C12.0127 35.9698 12 32.9197 12 28.0482H6ZM8.92113 45.0771L4.68003 49.3213C7.44166 52.0809 10.8234 53.125 14.2056 53.5796C17.4146 54.011 21.4179 53.9982 25.9523 53.9982V47.9982V41.9982C21.0786 41.9982 18.028 41.9855 15.8042 41.6866C13.7536 41.4109 13.3238 40.9944 13.1622 40.8329L8.92113 45.0771ZM25.9523 47.9982V53.9982C30.4846 53.9982 34.4874 54.011 37.6962 53.5796C41.0776 53.125 44.4606 52.081 47.2219 49.3198L42.9793 45.0771L38.7367 40.8344C38.5768 40.9943 38.1483 41.4109 36.0974 41.6866C33.874 41.9855 30.8239 41.9982 25.9523 41.9982V47.9982ZM42.9793 45.0771L47.2219 49.3198C49.7754 46.7663 50.865 43.6762 51.3732 40.5359C51.8528 37.5717 51.8932 33.998 51.9004 30.052L45.9004 30.0411L39.9004 30.0302C39.8929 34.1755 39.8272 36.7653 39.5273 38.619C39.2558 40.2966 38.8922 40.6789 38.7367 40.8344L42.9793 45.0771Z" fill="currentColor" mask="url(#path-1-outside-1_50_1110)"/>
<path d="M30.0066 7.45312C35.2293 3.42193 41.9876 2.41231 47.8962 3.29492L48.4646 3.38574L48.7166 3.44043C49.9532 3.76297 50.8614 4.84192 50.9509 6.13574C51.2057 9.8254 50.4561 12.9656 48.2117 15.3076C47.1949 16.3686 45.9703 17.1524 44.6267 17.748C45.0976 18.6514 45.4422 19.7841 45.2888 21.1035C45.1241 22.5224 44.5099 23.6057 43.6609 24.4941C42.9543 25.2336 42.007 25.9041 41.1853 26.498H41.1843C36.7513 29.7012 31.5934 31.7194 25.1921 32.0938C23.5626 32.1889 22.1564 30.9631 22.0271 29.3359C21.2048 18.9619 24.4735 11.724 30.0066 7.45312Z" stroke="currentColor" stroke-width="6" stroke-linecap="round" stroke-linejoin="round"/>
<path d="M31.4235 16.2573C32.5778 15.332 34.2346 15.3863 35.3258 16.3853C36.4171 17.3846 36.6172 19.0309 35.7965 20.2622L23.1959 39.1626C22.3536 40.4258 20.7001 40.8607 19.3453 40.1753C17.9906 39.4898 17.3617 37.9001 17.8805 36.4731C20.05 30.5069 22.2493 26.3699 24.5485 23.2319C26.8622 20.0742 29.1932 18.0459 31.4235 16.2573Z" stroke="currentColor" stroke-width="6" stroke-linecap="round" stroke-linejoin="round"/>
</svg>
